C:/Program Files/Krita (x64)/bin/ffmpeg.exe -hide_banner -y -y -r 2 -start_number 0 -start_number_range 1 -i C:/Users/idk/Desktop/codes/MCG/img/dCat/frame%04d.png -c:v libopenh264 -b:v 5000k C:/Users/idk/Desktop/codes/MCG/img/dCat/dCat.mp4
=====================================================
Input #0, image2, from 'C:/Users/idk/Desktop/codes/MCG/img/dCat/frame%04d.png':
  Duration: 00:00:01.40, start: 0.000000, bitrate: N/A
  Stream #0:0: Video: png, rgba(pc), 800x600 [SAR 11811:11811 DAR 4:3], 25 fps, 25 tbr, 25 tbn, 25 tbc
Stream mapping:
  Stream #0:0 -> #0:0 (png (native) -> h264 (libopenh264))
Press [q] to stop, [?] for help
[libopenh264 @ 000001937382d540] Slice count will be set automatically
[libopenh264 @ 000001937382d540] [OpenH264] this = 0x0000019373C6DF90, Warning:bEnableFrameSkip = 0,bitrate can't be controlled for RC_QUALITY_MODE,RC_BITRATE_MODE and RC_TIMESTAMP_MODE without enabling skip frame.
Output #0, mp4, to 'C:/Users/idk/Desktop/codes/MCG/img/dCat/dCat.mp4':
  Metadata:
    encoder         : Lavf58.76.100
  Stream #0:0: Video: h264 (avc1 / 0x31637661), yuv420p(tv, progressive), 800x600 [SAR 1:1 DAR 4:3], q=2-31, 5000 kb/s, 2 fps, 16384 tbn
    Metadata:
      encoder         : Lavc58.134.100 libopenh264
    Side data:
      cpb: bitrate max/min/avg: 5000000/0/5000000 buffer size: 0 vbv_delay: N/A
frame=    1 fps=0.0 q=-0.0 size=       0kB time=00:00:00.00 bitrate=6295.1kbits/s speed=0.00963x    frame=   24 fps=0.0 q=-0.0 size=    1536kB time=00:00:11.50 bitrate=1094.2kbits/s speed=22.2x    frame=   35 fps=0.0 q=-0.0 Lsize=    2560kB time=00:00:17.00 bitrate=1233.4kbits/s speed=26.5x    
video:2559kB audio:0kB subtitle:0kB other streams:0kB global headers:0kB muxing overhead: 0.038971%
